<?xml version="1.0" encoding="iso-8859-1"?>
<!-- Generator: Adobe Illustrator 19.0.0, SVG Export Plug-In . SVG Version: 6.00 Build 0)  -->
<svg version="1.1" id="Capa_1" xmlns="http://www.w3.org/2000/svg" xmlns:xlink="http://www.w3.org/1999/xlink" x="0px" y="0px"
	 viewBox="0 0 496.172 496.172" style="enable-background:new 0 0 496.172 496.172;" xml:space="preserve">
<g>
	<g>
		<path d="M432.082,223.932c-14.168,0-26.88,6.208-35.68,16H251.17c50.656-56.464,49.008-143.552-5.264-197.824
			c-56.152-56.144-147.504-56.144-203.648,0C-12.014,96.38-13.654,183.46,37.002,239.932h-12.92c-13.232,0-24,10.768-24,24v16
			c0,13.232,10.768,24,24,24h10.112c6.544,20.248,12.024,40.752,16.424,61.464l-0.192,0.192l0.304,0.304
			c8.832,41.752,13.352,84.32,13.352,127.24v2.8h16v-2.808c0-8.832-0.2-17.656-0.568-26.456l29.48,29.48l14.472-0.28l28.624-28.624
			l28.928,28.928l14.456-0.312l28.616-28.616l28.68,28.688h14.624l28.688-28.688l24.04,24.04c0,0.616-0.04,1.232-0.04,1.848v2.8h16
			v-2.808c0-64.376,10.112-127.984,29.888-189.192h30.44c8.792,9.792,21.504,16,35.68,16h64v-96H432.082z M239.962,228.5
			l-33.424-33.424c21.776-18.624,48.952-26.72,63.616-29.952C266.338,188.036,256.258,210.044,239.962,228.5z M195.362,206.524
			l33.344,33.344c-0.024,0.024-0.04,0.04-0.064,0.064h-53.656C180.482,227.06,187.314,215.9,195.362,206.524z M157.77,239.932
			H59.546c-0.024-0.024-0.048-0.048-0.08-0.072l84.616-84.616l39.96,39.96C173.258,207.516,164.45,222.484,157.77,239.932z
			 M271.81,148.42c-14.688,2.704-49.12,11.304-76.592,35.328l-39.824-39.816l84.568-84.568
			C262.298,84.668,272.914,116.668,271.81,148.42z M228.65,48.052l-84.568,84.568l-39.816-39.816
			C128.29,65.332,136.89,30.9,139.594,16.212C171.346,15.1,203.354,25.716,228.65,48.052z M122.906,17.86
			c-3.208,14.648-11.272,41.784-29.968,63.616L59.514,48.052C77.978,31.756,99.986,21.676,122.906,17.86z M48.21,59.364
			l33.424,33.424c-21.776,18.624-48.952,26.72-63.616,29.952C21.834,99.82,31.914,77.82,48.21,59.364z M16.362,139.444
			c14.688-2.704,49.12-11.304,76.592-35.328l39.816,39.816L48.202,228.5C25.874,203.196,15.258,171.196,16.362,139.444z
			 M50.954,303.932h9.816l22.448,22.448l11.312-11.312l-11.136-11.136h49.376l8,8l-24.688,24.688l-10.936-10.936l-11.312,11.312
			l10.936,10.936L80.082,372.62l-14.768-14.768C61.338,339.708,56.538,321.724,50.954,303.932z M271.402,347.932l24.688-24.688
			l24.688,24.688L296.09,372.62L271.402,347.932z M284.77,383.932l-24.688,24.688l-24.68-24.688l24.688-24.688L284.77,383.932z
			 M260.082,336.62l-24.688-24.688l8-8h33.376l8,8L260.082,336.62z M248.778,347.932L224.09,372.62l-24.688-24.688l24.688-24.688
			L248.778,347.932z M212.77,383.932l-24.688,24.688l-24.688-24.688l24.688-24.688L212.77,383.932z M188.082,336.62l-32.68-32.688
			h65.368L188.082,336.62z M176.77,347.932l-24.688,24.688l-24.68-24.688l24.688-24.688L176.77,347.932z M140.77,383.932
			l-24.688,24.688l-24.68-24.688l24.688-24.688L140.77,383.932z M78.058,442.596c-1.52-18.976-3.984-37.848-7.208-56.584
			l33.92,33.92L80.082,444.62L78.058,442.596z M116.706,479.996l-1.216,0.032l-24.096-24.096l24.688-24.688l24.688,24.688
			L116.706,479.996z M152.082,444.62l-24.688-24.688l24.688-24.688l24.688,24.688L152.082,444.62z M188.698,480.004l-1.192,0.032
			l-24.104-24.104l24.688-24.688l24.68,24.688L188.698,480.004z M260.77,479.932h-1.376l-24-24l8.352-8.352l-11.312-11.312
			l-8.352,8.352l-24.68-24.688l24.688-24.688l24.688,24.688l-7.424,7.424l11.312,11.312l7.424-7.424l24.68,24.688L260.77,479.932z
			 M271.402,419.932l24.68-24.688l24.688,24.688l-24.688,24.688L271.402,419.932z M320.57,469.1l-13.168-13.168l14.848-14.848
			C321.482,450.396,320.922,459.74,320.57,469.1z M326.634,403.172l-19.232-19.24l24.688-24.688l2,2
			C331.122,375.14,328.658,389.116,326.634,403.172z M338.242,342.772l-38.84-38.84h49.816
			C345.178,316.796,341.442,329.724,338.242,342.772z M386.882,287.932h-362.8c-4.408,0-8-3.584-8-8v-16c0-4.416,3.592-8,8-8h362.8
			c-1.784,5.016-2.8,10.384-2.8,16C384.082,277.548,385.106,282.916,386.882,287.932z M480.082,303.932h-16v-16h-16v16h-16
			c-17.648,0-32-14.352-32-32s14.352-32,32-32h16v32h16v-32h16V303.932z"/>
	</g>
</g>
<g>
</g>
<g>
</g>
<g>
</g>
<g>
</g>
<g>
</g>
<g>
</g>
<g>
</g>
<g>
</g>
<g>
</g>
<g>
</g>
<g>
</g>
<g>
</g>
<g>
</g>
<g>
</g>
<g>
</g>
</svg>
