<svg height="512" viewBox="0 0 512 512" width="512" xmlns="http://www.w3.org/2000/svg"><g id="outline"><circle cx="220" cy="324" r="12"/><circle cx="292" cy="324" r="12"/><path d="m495.046 265.61-.117-.7a156 156 0 0 0 -108-123.455l-16.576-5.1a8 8 0 0 0 -8.753 2.845l-24 32a8 8 0 0 0 -.256 9.238l16 24a7.987 7.987 0 0 0 8.6 3.323l27.02-6.755 24.32 30.4-7.608 7.609-12.876-3.677a89.909 89.909 0 0 0 -63.748 5.437q-.9-.03-1.811-.031h-2.411a54.392 54.392 0 0 0 -40.647 18.27l-.08.09-28.103 32.637-28.107-32.641-.08-.09a54.392 54.392 0 0 0 -40.647-18.27h-2.411q-.932 0-1.859.034a89.7 89.7 0 0 0 -63.7-5.44l-12.869 3.677-7.608-7.609 24.32-30.4 27.02 6.755a7.989 7.989 0 0 0 8.6-3.323l16-24a8 8 0 0 0 -.256-9.238l-24-32a8 8 0 0 0 -8.753-2.846l-16.576 5.1a156 156 0 0 0 -108 123.446l-.121.72a20.093 20.093 0 0 0 3.729 15.287l37.175 49.569a90.077 90.077 0 0 0 91.283 33.911l23.268-3.712a220.768 220.768 0 0 0 31.918 28.033l47.005 33.796a8 8 0 0 0 9.338 0l47.007-33.788a220.76 220.76 0 0 0 31.917-28.033l23.268 3.712a90.077 90.077 0 0 0 91.283-33.911l37.174-49.568a20.1 20.1 0 0 0 3.728-15.302zm-348.661 83.013c-.159.025-.318.056-.475.091a74.135 74.135 0 0 1 -75.253-27.838l-37.177-49.569a4.021 4.021 0 0 1 -.747-3.048l.121-.719a140 140 0 0 1 96.922-110.793l11.2-3.446 17.228 22.97-9.733 14.6-26.531-6.632a8 8 0 0 0 -8.187 2.761l-32 40a8 8 0 0 0 .59 10.654l16 16a7.993 7.993 0 0 0 7.854 2.035l17.4-4.969a73.817 73.817 0 0 1 32.609-1.817 54.432 54.432 0 0 0 -18.085 18.28 44.466 44.466 0 0 0 -5.845 28.817h-16.963l-13.656-13.657a8 8 0 0 0 -11.314 11.314l16 16a8 8 0 0 0 5.657 2.343h24a8.048 8.048 0 0 0 1.571-.156 220.624 220.624 0 0 0 22.537 34.59zm151.952 27.093-42.337 30.431-42.336-30.431a206.015 206.015 0 0 1 -61.981-71.409l-.653-1.247a28.458 28.458 0 0 1 .839-27.7 38.544 38.544 0 0 1 32.886-18.62h2.411a38.388 38.388 0 0 1 28.646 12.86l34.126 39.626a8 8 0 0 0 12.124 0l34.126-39.626a38.388 38.388 0 0 1 28.646-12.851h2.411a38.571 38.571 0 0 1 32.919 18.674 28.431 28.431 0 0 1 .8 27.644l-.649 1.242a206.032 206.032 0 0 1 -61.978 71.407zm180.182-104.408-37.176 49.568a74.132 74.132 0 0 1 -75.253 27.838c-.157-.035-.316-.066-.475-.091l-13.723-2.189a220.559 220.559 0 0 0 22.452-34.434h25.656a8 8 0 0 0 5.657-2.343l16-16a8 8 0 0 0 -11.314-11.314l-13.656 13.657h-16.965a44.555 44.555 0 0 0 -5.87-28.868 54.3 54.3 0 0 0 -18.044-18.226 73.922 73.922 0 0 1 32.6 1.817l17.395 4.969a8 8 0 0 0 7.854-2.035l16-16a8 8 0 0 0 .59-10.654l-32-40a8 8 0 0 0 -8.187-2.764l-26.531 6.632-9.733-14.6 17.228-22.97 11.2 3.446a139.995 139.995 0 0 1 96.923 110.8l.118.7a4.025 4.025 0 0 1 -.746 3.061z"/><path d="m272 344h-32a8 8 0 0 0 0 16h32a8 8 0 0 0 0-16z"/><path d="m184.41 218.53a8 8 0 0 0 15.18-5.06l-8-24a8 8 0 0 0 -15.18 5.06z"/><path d="m219.562 230.656a8 8 0 0 0 11.094-2.218l16-24a8 8 0 0 0 -13.312-8.876l-16 24a8 8 0 0 0 2.218 11.094z"/><path d="m317.47 223.59a8 8 0 0 0 10.12-5.06l8-24a8 8 0 0 0 -15.18-5.06l-8 24a8 8 0 0 0 5.06 10.12z"/><path d="m281.344 228.438a8 8 0 0 0 13.312-8.876l-16-24a8 8 0 1 0 -13.312 8.876z"/><path d="m72 96h16v16h-16z"/><path d="m72 128h16v16h-16z"/><path d="m56 112h16v16h-16z"/><path d="m88 112h16v16h-16z"/><path d="m296 88h16v16h-16z"/><path d="m296 136h16v16h-16z"/><path d="m272 112h16v16h-16z"/><path d="m320 112h16v16h-16z"/></g></svg>