<svg id="outline" height="512" viewBox="0 0 512 512" width="512" xmlns="http://www.w3.org/2000/svg"><path d="m348 56h-184c-81.60742 0-148 66.39258-148 148v124a128.14509 128.14509 0 0 0 128 128h224a128.14509 128.14509 0 0 0 128-128v-124c0-81.60742-66.39258-148-148-148zm-100 384h-16v-32h16zm16 0v-32h16v32zm216-112a112.12706 112.12706 0 0 1 -112 112h-72v-40a8.00008 8.00008 0 0 0 -8-8h-64a8.00008 8.00008 0 0 0 -8 8v40h-72a112.12706 112.12706 0 0 1 -112-112v-33.11328a148.15966 148.15966 0 0 0 132 81.11328h184a148.15973 148.15973 0 0 0 132-81.11328zm0-100c0 72.78516-59.21484 132-132 132h-184c-72.78516 0-132-59.21484-132-132v-24c0-72.78516 59.21484-132 132-132h184c72.78516 0 132 59.21484 132 132z"/><path d="m152 328h16v16h-16z"/><path d="m312 400h16v16h-16z"/><path d="m344 400h16v16h-16z"/><path d="m376 400h16v16h-16z"/><path d="m120 400h16v16h-16z"/><path d="m152 400h16v16h-16z"/><path d="m184 400h16v16h-16z"/><path d="m448 200v24a104.11791 104.11791 0 0 1 -104 104h-160v16h160a120.13623 120.13623 0 0 0 120-120v-24z"/><path d="m432 216a96.10874 96.10874 0 0 0 -96-96h-160a96 96 0 0 0 0 192h160a96.10874 96.10874 0 0 0 96-96zm-327.16217 36.47949a106.411 106.411 0 0 1 22.46545-46.09179l7.49207 10.48876a79.81368 79.81368 0 0 0 -27.45441 40.12842c-.88501-1.47656-1.71258-2.98974-2.50311-4.52539zm80.92078-116.47949h62.24139v16h-38.67578a123.04936 123.04936 0 0 0 -20.03681 1.64429zm136.954 17.64429a123.05065 123.05065 0 0 0 -20.03683-1.64429h-38.67578v-16h62.24146zm81.94091 103.36987a79.86887 79.86887 0 0 0 -27.45666-40.12671l7.49988-10.49975a106.41211 106.41211 0 0 1 22.46533 46.09179c-.79207 1.53906-1.62142 3.05518-2.50851 4.53467zm-44.65352-32.46484v67.76757a79.39524 79.39524 0 0 1 -16 3.28223v-77.57568a63.69646 63.69646 0 0 1 16 6.52588zm16 13.084a63.64539 63.64539 0 0 1 15.65979 35.75 80.448 80.448 0 0 1 -15.65979 11.85398zm-12.3728-29.27466a79.73964 79.73964 0 0 0 -33.8772-8.31592l5.399-26.99487a107.05943 107.05943 0 0 1 38.20215 21.69727zm-50.18579-8.35866h-49.44141v-32h38.67578a106.99406 106.99406 0 0 1 16.89307 1.36279zm-104.11719-32h38.67578v32h-49.44141l-6.12744-30.63721a106.99291 106.99291 0 0 1 16.89307-1.36279zm-27.07428 32.04272a79.79766 79.79766 0 0 0 -33.88355 8.30713l-9.71759-13.60473a107.05891 107.05891 0 0 1 38.2022-21.69727zm-46.24994 37.57544v47.61914a80.44764 80.44764 0 0 1 -15.65717-11.85156 63.65025 63.65025 0 0 1 15.65717-35.76758zm16-13.07885a63.67889 63.67889 0 0 1 16-6.52v77.57983a79.39524 79.39524 0 0 1 -16-3.28223zm32-8.53931h16v80h-16zm32 0h16v80h-16zm32 0h16v80h-16zm32 0h16v80h-16zm32 0h16v80h-16zm103.37036 9.86108a122.55539 122.55539 0 0 0 -21.0968-32.8811l11.48364-16.0769a79.48151 79.48151 0 0 1 10.2428 39.09692 80.308 80.308 0 0 1 -.62964 9.86108zm-19.42224-62.75146-13.24768 18.54663a123.05025 123.05025 0 0 0 -44.39722-24.37891l4.198-20.99072a79.84943 79.84943 0 0 1 53.4469 26.823zm-226.4494-26.823 4.19812 20.99072a123.05076 123.05076 0 0 0 -44.39734 24.37891l-13.24762-18.54663a79.84929 79.84929 0 0 1 53.44684-26.823zm-63.25592 40.61646 11.48364 16.07692a122.557 122.557 0 0 0 -21.09686 32.8811 80.308 80.308 0 0 1 -.62958-9.8611 79.48215 79.48215 0 0 1 10.2428-39.09692z"/></svg>