<svg height="512pt" viewBox="0 0 512.003 512" width="512pt" xmlns="http://www.w3.org/2000/svg"><path d="m497 451.980469c-25.082031 0-38.441406 9.96875-49.175781 17.976562-9.351563 6.980469-16.109375 12.023438-31.234375 12.023438-15.105469 0-21.859375-5.042969-31.203125-12.019531-10.730469-8.011719-24.082031-17.980469-49.152344-17.980469-25.058594 0-38.402344 9.972656-49.125 17.984375-9.332031 6.972656-16.078125 12.015625-31.164063 12.015625-15.097656 0-21.847656-5.042969-31.1875-12.019531-10.726562-8.011719-24.074218-17.980469-49.140624-17.980469-25.0625 0-38.410157 9.972656-49.132813 17.980469-9.335937 6.976562-16.085937 12.019531-31.175781 12.019531-15.09375 0-21.839844-5.042969-31.175782-12.019531-10.726562-8.011719-24.070312-17.980469-49.132812-17.980469-8.285156 0-15 6.714843-15 15 0 8.28125 6.714844 15 15 15 15.09375 0 21.839844 5.039062 31.175781 12.015625 10.722657 8.011718 24.070313 17.984375 49.132813 17.984375s38.40625-9.972657 49.132812-17.984375c9.335938-6.976563 16.082032-12.015625 31.175782-12.015625 15.097656 0 21.847656 5.039062 31.1875 12.015625 10.726562 8.011718 24.078124 17.984375 49.140624 17.984375 25.058594 0 38.402344-9.972657 49.125-17.984375 9.332032-6.976563 16.078126-12.015625 31.164063-12.015625 15.105469 0 21.859375 5.039062 31.203125 12.019531 10.726562 8.011719 24.082031 17.980469 49.152344 17.980469 25.082031 0 38.441406-9.96875 49.175781-17.980469 9.355469-6.976562 16.113281-12.019531 31.234375-12.019531 8.285156 0 15-6.71875 15-15 0-8.285157-6.714844-15-15-15zm0 0"/><path d="m497 361.980469c-25.082031 0-38.441406 9.96875-49.175781 17.976562-9.351563 6.980469-16.109375 12.023438-31.234375 12.023438-15.105469 0-21.859375-5.042969-31.203125-12.019531-10.730469-8.011719-24.082031-17.980469-49.152344-17.980469-25.058594 0-38.402344 9.972656-49.125 17.984375-9.332031 6.972656-16.078125 12.015625-31.164063 12.015625-15.097656 0-21.847656-5.042969-31.1875-12.019531-10.726562-8.011719-24.074218-17.980469-49.140624-17.980469-25.0625 0-38.410157 9.972656-49.132813 17.980469-9.335937 6.976562-16.085937 12.019531-31.175781 12.019531-15.09375 0-21.839844-5.042969-31.175782-12.019531-10.726562-8.011719-24.070312-17.980469-49.132812-17.980469-8.285156 0-15 6.714843-15 15 0 8.28125 6.714844 15 15 15 15.09375 0 21.839844 5.039062 31.175781 12.015625 10.722657 8.011718 24.070313 17.984375 49.132813 17.984375s38.40625-9.972657 49.132812-17.984375c9.335938-6.976563 16.082032-12.015625 31.175782-12.015625 15.097656 0 21.847656 5.039062 31.1875 12.015625 10.726562 8.011718 24.078124 17.984375 49.140624 17.984375 25.058594 0 38.402344-9.972657 49.125-17.984375 9.332032-6.976563 16.078126-12.015625 31.164063-12.015625 15.105469 0 21.859375 5.039062 31.203125 12.019531 10.726562 8.011719 24.082031 17.980469 49.152344 17.980469 25.082031 0 38.441406-9.96875 49.175781-17.980469 9.355469-6.976562 16.113281-12.019531 31.234375-12.019531 8.285156 0 15-6.71875 15-15 0-8.285157-6.714844-15-15-15zm0 0"/><path d="m15 301.980469c15.09375 0 21.839844 5.039062 31.175781 12.015625 10.726563 8.011718 24.070313 17.984375 49.132813 17.984375.523437 0 1.035156-.011719 1.550781-.019531h.046875c.046875 0 .089844 0 .140625-.003907.59375-.011719 1.179687-.027343 1.761719-.050781.160156-.007812.320312-.011719.476562-.019531.570313-.023438 1.132813-.054688 1.691406-.089844.15625-.011719.316407-.019531.476563-.03125.554687-.039063 1.101563-.082031 1.644531-.132813.148438-.011718.300782-.027343.453125-.039062.546875-.054688 1.085938-.113281 1.617188-.171875.136719-.019531.277343-.03125.414062-.050781.539063-.066406 1.074219-.136719 1.601563-.210938.121094-.019531.242187-.035156.363281-.054687.542969-.078125 1.074219-.164063 1.601563-.253907.101562-.019531.199218-.035156.300781-.054687.542969-.09375 1.074219-.195313 1.605469-.300781.082031-.015625.160156-.03125.242187-.046875.542969-.109375 1.078125-.226563 1.605469-.347657.0625-.011718.121094-.027343.183594-.039062.546874-.125 1.085937-.257812 1.621093-.394531.035157-.007813.070313-.019531.105469-.027344.554688-.144531 1.097656-.292969 1.640625-.445313.011719-.003906.023437-.007812.035156-.011718 12.34375-3.53125 20.746094-9.800782 27.953125-15.1875 9.339844-6.976563 16.085938-12.015625 31.179688-12.015625 15.097656 0 21.847656 5.039062 31.1875 12.019531 10.726562 8.011719 24.074218 17.980469 49.140625 17.980469 25.058593 0 38.402343-9.972657 49.125-17.984375 8.164062-6.105469 14.351562-10.726563 25.875-11.785156 1.644531-.152344 3.402343-.230469 5.289062-.230469 2.832031 0 5.371094.179687 7.6875.511719.171875.023437.332031.058593.503907.085937 1.351562.210937 2.640624.46875 3.855468.785156 7.53125 1.957031 12.730469 5.839844 19.152344 10.636719 1.996094 1.492188 4.085938 3.046875 6.320312 4.597656.003907 0 .007813.003906.007813.003906.710937.492188 1.4375.984376 2.179687 1.472657.03125.019531.0625.042969.09375.0625.007813.003906.011719.003906.015626.007812 9.464843 6.199219 21.691406 11.835938 40.539062 11.835938 25.082031 0 38.4375-9.96875 49.175781-17.976563 9.351563-6.980468 16.109375-12.023437 31.234375-12.023437 8.28125 0 15-6.714844 15-15 0-8.285157-6.71875-15-15-15-25.082031 0-38.441406 9.96875-49.175781 17.976562-9.355469 6.980469-16.113281 12.023438-31.234375 12.023438-10.382812 0-16.820312-2.382813-22.863281-6.136719l-36.457031-36.453125c16.007812-2.253906 30.792968-9.585937 42.425781-21.21875 29.242187-29.242187 29.242187-76.820313 0-106.0625-14.167969-14.167969-33-21.96875-53.035157-21.96875-20.03125 0-38.867187 7.800781-53.03125 21.96875-11.929687 11.929687-18.988281 26.910156-21.183593 42.453125l-27.054688-27.054688c-4.722656-4.71875-7.324219-11-7.324219-17.675781 0-6.679687 2.601563-12.957031 7.324219-17.679687l35.355469-35.351563c8.5-8.5 13.179688-19.800781 13.179688-31.820312s-4.679688-23.320313-13.179688-31.820313c-17.546875-17.542968-46.09375-17.542968-63.640625 0l-35.351563 35.355469c-21.722656 21.71875-33.683593 50.597656-33.683593 81.316406 0 29.042969 10.695312 56.445313 30.222656 77.707031l-93.429687 93.425782c-8.398438-1.804688-13.875-5.875-20.734376-11.003906-10.722656-8.011719-24.070312-17.980469-49.132812-17.980469-8.28125 0-15 6.714843-15 15 0 8.28125 6.71875 15 15 15zm299.847656-148.660157c8.496094-8.5 19.796875-13.179687 31.816406-13.179687 12.019532 0 23.320313 4.679687 31.820313 13.179687 17.546875 17.546876 17.546875 46.09375 0 63.640626-8.5 8.5-19.796875 13.179687-31.820313 13.179687-12.019531 0-23.316406-4.679687-31.816406-13.179687-17.546875-17.546876-17.546875-46.09375 0-63.640626zm-104.808594 64.898438c2.8125-2.8125 4.394532-6.625 4.394532-10.605469 0-3.976562-1.582032-7.792969-4.394532-10.605469l-7.070312-7.070312c-16.054688-16.054688-24.898438-37.398438-24.898438-60.105469 0-22.703125 8.84375-44.046875 24.898438-60.101562l35.355469-35.355469c5.847656-5.851562 15.363281-5.847656 21.210937 0 2.832032 2.832031 4.394532 6.601562 4.394532 10.605469 0 4.007812-1.5625 7.773437-4.394532 10.605469l-35.355468 35.355468c-10.386719 10.386719-16.105469 24.199219-16.105469 38.890625 0 14.691407 5.71875 28.503907 16.109375 38.890625l103.652344 103.65625c-.050782.003906-.097657.011719-.148438.015625-1.085938.109375-2.140625.238281-3.175781.386719-.183594.023438-.367188.050781-.546875.078125-1.019532.152344-2.015625.320313-2.988282.507813-.15625.027343-.308593.0625-.460937.089843-.996094.199219-1.980469.414063-2.929687.644531-.054688.011719-.101563.027344-.152344.039063-.945313.234375-1.867188.484375-2.769532.75-.097656.027344-.195312.054687-.296874.085937-.886719.265626-1.75.542969-2.597657.835938-.140625.046875-.285156.097656-.421875.144531-.828125.292969-1.636718.59375-2.429687.910157-.128907.050781-.261719.101562-.390625.15625-.800782.324218-1.589844.65625-2.355469 1.003906-.066406.027344-.128906.058594-.191406.085937-.773438.351563-1.527344.710938-2.265625 1.078125-.050782.027344-.101563.050782-.152344.074219-.738281.371094-1.457031.753906-2.164062 1.136719-.105469.058594-.210938.117187-.3125.171875-.6875.378906-1.355469.761719-2.011719 1.152343-.101563.0625-.207031.121094-.308594.183594-.660156.394532-1.3125.796875-1.949219 1.199219-.058594.039063-.117187.078125-.175781.113281-.660156.421875-1.308594.847656-1.941406 1.273438-.007813.003906-.015625.007812-.019531.011718-.640626.433594-1.265626.863282-1.878907 1.296876-.066406.042968-.132812.089843-.195312.136718-.59375.417969-1.179688.835938-1.753907 1.253906-.070312.050782-.136718.101563-.207031.152344-.582031.421875-1.15625.847656-1.722656 1.265625-.019531.015625-.035156.027344-.054687.039063-.59375.441406-1.179688.878906-1.753907 1.308594-8.167969 6.105468-14.351562 10.726562-25.878906 11.785156-1.644531.152344-3.398437.230468-5.285156.230468-15.101563 0-21.847657-5.039062-31.1875-12.015624-10.730469-8.015626-24.078125-17.984376-49.144531-17.984376-.984376 0-1.945313.023438-2.898438.050782-.265625.011718-.527344.019531-.789062.03125-.757813.03125-1.507813.070312-2.246094.121094-.191406.011718-.390625.023437-.582032.035156-.894531.066406-1.773437.148437-2.636718.238281-.207032.023437-.410156.050781-.617188.074219-.683594.078125-1.359375.164062-2.027344.261718-.226562.03125-.457031.0625-.683593.097657-.824219.125-1.636719.257812-2.429688.40625-.078125.015625-.15625.03125-.234375.046875-.722656.136718-1.429687.285156-2.128906.441406-.222656.050781-.441406.101562-.664062.152344-.628907.148437-1.246094.300781-1.855469.460937-.136719.035157-.277344.070313-.414063.105469-.726562.195312-1.4375.402344-2.136718.617188-.0625.019531-.125.035156-.1875.050781zm0 0"/></svg>