<svg height="512" viewBox="0 0 64 64" width="512" xmlns="http://www.w3.org/2000/svg"><path d="m3 40h58a1 1 0 0 0 0-2h-58a1 1 0 0 0 0 2z"/><path d="m61 44a1 1 0 0 0 0-2h-58a1 1 0 0 0 0 2h.82l-.29 1.72c-.07.42-.1.84-.13 1.26l-.4.02a1 1 0 0 0 0 2h.39a13.55 13.55 0 0 0 .66 3.34 6.06 6.06 0 0 1 .16.61 12.09 12.09 0 0 1 -1.21.05 1 1 0 0 0 0 2 12.14 12.14 0 0 0 1.59-.11 12.06 12.06 0 0 1 -.1 3.11l-.16 1a11.72 11.72 0 0 1 -1.33 0 1 1 0 0 0 0 2h1a1 1 0 0 0 .82 1h.18a1 1 0 0 0 1-.84l.08-.52c.39-.09.77-.2 1.14-.32l1.1-.32a8.19 8.19 0 0 1 1.9-.37l-.22 1.21a1 1 0 0 0 .84 1.16h.16a1 1 0 0 0 1-.84l.25-1.54a7.91 7.91 0 0 1 1.44.33 10.44 10.44 0 0 0 2.4.49l-.07.4a1 1 0 0 0 .82 1.16h.16a1 1 0 0 0 1-.84l.12-.74a10.49 10.49 0 0 0 2.2-.42 8.19 8.19 0 0 1 1.9-.37l-.22 1.21a1 1 0 0 0 .84 1.16h.16a1 1 0 0 0 1-.84l.25-1.54a7.91 7.91 0 0 1 1.44.33 10.44 10.44 0 0 0 2.4.49l-.07.4a1 1 0 0 0 .82 1.16h.16a1 1 0 0 0 1-.84l.12-.74a10.49 10.49 0 0 0 2.2-.42 8.19 8.19 0 0 1 1.9-.37l-.22 1.21a1 1 0 0 0 .84 1.16h.16a1 1 0 0 0 1-.84l.25-1.54a7.91 7.91 0 0 1 1.44.33 10.44 10.44 0 0 0 2.4.49l-.07.4a1 1 0 0 0 .82 1.16h.16a1 1 0 0 0 1-.84l.12-.74a10.49 10.49 0 0 0 2.2-.42 8.19 8.19 0 0 1 1.9-.37l-.22 1.21a1 1 0 0 0 .84 1.16h.16a1 1 0 0 0 1-.84l.25-1.54a7.91 7.91 0 0 1 1.44.33 1 1 0 1 0 .64-1.9 10.83 10.83 0 0 0 -1.79-.42 13.68 13.68 0 0 0 -.1-4 7.87 7.87 0 0 1 1.25.31 10.6 10.6 0 0 0 2.85.51 11.66 11.66 0 0 1 0 3.49l-.54 2.9a1 1 0 0 0 .84 1.16h.16a1 1 0 0 0 1-.84l.48-2.88a13.84 13.84 0 0 0 .06-3.91 11.33 11.33 0 0 0 1.78-.37l.31-.11a3.77 3.77 0 0 1 1.79-.12 11.94 11.94 0 0 1 .1 4 5.4 5.4 0 0 0 -2.08.1 1 1 0 1 0 .47 1.94 3.76 3.76 0 0 1 1.29-.07l-.2 1.1a1 1 0 0 0 .84 1.16h.16a1 1 0 0 0 1-.84l.1-.63a1.71 1.71 0 0 1 .2.18 1 1 0 0 0 1.42 0 1 1 0 0 0 0-1.42 5.7 5.7 0 0 0 -1.26-.93v-.08a13.57 13.57 0 0 0 .13-3.37.93.93 0 0 0 .41.09 1 1 0 0 0 .71-.29 1 1 0 0 0 0-1.42 5.78 5.78 0 0 0 -1.63-1.12c0-.16-.08-.33-.13-.49a11.78 11.78 0 0 1 -.58-3.63 3.25 3.25 0 0 1 .92.66 1 1 0 0 0 1.42 0 1 1 0 0 0 0-1.42 5.55 5.55 0 0 0 -2.19-1.29l.33-2zm-9.47 1.72c0 .2 0 .41-.06.61a7.42 7.42 0 0 1 -1.15-.28 10.61 10.61 0 0 0 -2.73-.51l.26-1.54h4zm-13.21.33a10.61 10.61 0 0 0 -2.73-.51l.26-1.54h4l-.29 1.72c0 .2 0 .41-.06.61a7.42 7.42 0 0 1 -1.18-.28zm-26.4 5.51a11.68 11.68 0 0 1 -.56-4 8 8 0 0 1 1.54.19 1 1 0 1 0 .45-1.95 10.47 10.47 0 0 0 -1.76-.23l.26-1.57h4l-.29 1.72a13.94 13.94 0 0 0 .52 6.6v.09a8.09 8.09 0 0 1 -1.76-.36 10.44 10.44 0 0 0 -2.4-.49zm6 .12a11.68 11.68 0 0 1 -.44-5.63l.34-2h4l-.27 1.62a11 11 0 0 0 -1.87.43 1 1 0 1 0 .64 1.9 7.32 7.32 0 0 1 1.05-.26 13.51 13.51 0 0 0 .49 3.9 10.85 10.85 0 0 0 -2.18.46 8.15 8.15 0 0 1 -1.54.34c-.07-.28-.14-.52-.14-.76zm9.58-6c0 .2 0 .41-.06.61a7.42 7.42 0 0 1 -1.15-.28 10.61 10.61 0 0 0 -2.73-.51l.29-1.5h4zm-3.61 5.84a11.68 11.68 0 0 1 -.56-4 8.7 8.7 0 0 1 2.32.41 11.08 11.08 0 0 0 1.7.41 14 14 0 0 0 .67 4v.09a8.09 8.09 0 0 1 -1.76-.36 10.44 10.44 0 0 0 -2.34-.51zm5.59-5.51.34-2h4l-.27 1.62a11 11 0 0 0 -1.87.43 8.28 8.28 0 0 1 -2.22.4c.02-.15.02-.28.05-.41zm16-.43a11 11 0 0 0 -1.87.43 8.28 8.28 0 0 1 -2.22.4c0-.14 0-.27 0-.4l.34-2h4zm-3.48 6.1a11.28 11.28 0 0 1 -.57-3.21 10.56 10.56 0 0 0 2.89-.47 7.32 7.32 0 0 1 1-.26 13.51 13.51 0 0 0 .49 3.9 10.85 10.85 0 0 0 -2.18.46 8.15 8.15 0 0 1 -1.54.34c-.02-.28-.09-.52-.09-.76zm-36.49-5.63.34-2h4l-.27 1.64a10.08 10.08 0 0 0 -1.87.41l-1.1.37c-.38.12-.76.22-1.14.31-.01-.28 0-.51.04-.73zm.49 5.63a12 12 0 0 1 -.57-2.9 12.9 12.9 0 0 0 1.83-.46l1.06-.32a7.35 7.35 0 0 1 1-.27 13.62 13.62 0 0 0 .49 3.91 10.85 10.85 0 0 0 -2.18.46l-1.1.37-.4.12c-.03-.34-.13-.59-.13-.91zm1.73 6.37-1.1.37h-.14v-.18a14 14 0 0 0 .08-3.77l.66-.19 1.09-.28a8.51 8.51 0 0 1 2.06-.38 11.71 11.71 0 0 1 .16 4 10.76 10.76 0 0 0 -2.86.43zm6.64 0a10.83 10.83 0 0 0 -1.79-.42 13.68 13.68 0 0 0 -.1-4 7.87 7.87 0 0 1 1.25.31 10.6 10.6 0 0 0 2.85.51 11.66 11.66 0 0 1 0 3.49l-.08.49a8.21 8.21 0 0 1 -2.18-.38zm5.36 0a8.69 8.69 0 0 1 -1.22.3v-.07a13.84 13.84 0 0 0 .06-3.91 11.33 11.33 0 0 0 1.75-.37 8.51 8.51 0 0 1 2.06-.38 11.71 11.71 0 0 1 .16 4 10.76 10.76 0 0 0 -2.86.43zm6.64 0a10.83 10.83 0 0 0 -1.79-.42 13.68 13.68 0 0 0 -.1-4 7.87 7.87 0 0 1 1.25.31 10.6 10.6 0 0 0 2.85.51 11.66 11.66 0 0 1 0 3.49l-.08.49a8.21 8.21 0 0 1 -2.18-.38zm5.36 0a8.69 8.69 0 0 1 -1.22.3v-.07a13.84 13.84 0 0 0 .06-3.91 11.33 11.33 0 0 0 1.75-.37 1 1 0 0 0 -.64-1.9 8.15 8.15 0 0 1 -1.54.34c-.07-.23-.11-.47-.19-.71a11.28 11.28 0 0 1 -.57-3.21 10.56 10.56 0 0 0 2.94-.52 7.32 7.32 0 0 1 1-.26 13.72 13.72 0 0 0 .68 4.63 11.8 11.8 0 0 1 .49 5.21 10.76 10.76 0 0 0 -2.81.47zm6.64 0a10.83 10.83 0 0 0 -1.79-.42 13.65 13.65 0 0 0 -.58-6 11.87 11.87 0 0 1 -.59-4.14 8.7 8.7 0 0 1 2.32.41 11.08 11.08 0 0 0 1.7.41 14 14 0 0 0 .67 4v.1a7.46 7.46 0 0 1 -.93-.14 1 1 0 0 0 -.43 2 10.93 10.93 0 0 0 1.8.22 11.34 11.34 0 0 1 0 3.49l-.08.49a8.21 8.21 0 0 1 -2.14-.42zm5.36 0a8.69 8.69 0 0 1 -1.22.3v-.07a13.92 13.92 0 0 0 .06-3.92 11.29 11.29 0 0 0 1.75-.36 8.51 8.51 0 0 1 2.06-.38 11.71 11.71 0 0 1 .16 4 10.76 10.76 0 0 0 -2.86.43zm6.64-6a10.44 10.44 0 0 0 -2.4-.49 11.68 11.68 0 0 1 -.56-4 8.7 8.7 0 0 1 2.32.41 11.08 11.08 0 0 0 1.7.41 14 14 0 0 0 .67 4v.09a8.09 8.09 0 0 1 -1.78-.42zm5.63-.05-.32.1a8.15 8.15 0 0 1 -1.54.34c-.07-.23-.11-.47-.19-.71a11.28 11.28 0 0 1 -.57-3.21 10.56 10.56 0 0 0 2.94-.52l.31-.11a3.74 3.74 0 0 1 .74-.15 13.77 13.77 0 0 0 .51 4 5.54 5.54 0 0 0 -1.88.26zm1.54-6.29a5.58 5.58 0 0 0 -1.54.29l-.32.1a8.28 8.28 0 0 1 -2.22.4c0-.14 0-.27 0-.4l.34-2h4z"/><path d="m21.34 27.56a17 17 0 0 0 29.39-.11 16.95 16.95 0 0 0 -5.25-22.55 16.88 16.88 0 0 0 -9.48-2.9h-.07a17 17 0 0 0 -6.53 1.33 1 1 0 0 0 -.53 1.31 1 1 0 0 0 1.31.53 15.1 15.1 0 0 1 5.18-1.17 17.21 17.21 0 0 1 1.42 5.18 18.19 18.19 0 0 0 -14.78 4.5 15 15 0 0 1 5-6.62 1 1 0 0 0 -1.21-1.59 16.93 16.93 0 0 0 -4.43 22zm22.15 4.44a15.93 15.93 0 0 1 -13.09-7.6 1 1 0 0 0 -1.4-.32 1 1 0 0 0 -.32 1.37 17.92 17.92 0 0 0 11.11 8 14.87 14.87 0 0 1 -16.44-6.45 17 17 0 0 1 12.16-7 19 19 0 0 0 12.6 7.76 15.12 15.12 0 0 1 -4.62 4.24zm7.51-13a14.87 14.87 0 0 1 -1.71 6.93 17 17 0 0 1 -12.14-7 19 19 0 0 0 1.71-8.63 18.9 18.9 0 0 0 -1.29-6.18 14.93 14.93 0 0 1 6.54 2.28 15.94 15.94 0 0 1 .1 15 1 1 0 0 0 .42 1.35 1.07 1.07 0 0 0 .46.11 1 1 0 0 0 .89-.53 18 18 0 0 0 1.44-13.04 14.94 14.94 0 0 1 3.58 9.71zm-29.92-1.32a16.1 16.1 0 0 1 15.78-6.42 16.78 16.78 0 0 1 -1.54 6.8 19 19 0 0 0 -13 7 14.76 14.76 0 0 1 -1.32-6.06c0-.44 0-.88.08-1.32z"/></svg>